<?xml version="1.0" encoding="UTF-8"?><svg xmlns="http://www.w3.org/2000/svg" xmlns:xlink="http://www.w3.org/1999/xlink" fill-opacity="1" color-rendering="auto" color-interpolation="auto" text-rendering="auto" stroke="black" stroke-linecap="square" width="462" stroke-miterlimit="10" shape-rendering="auto" stroke-opacity="1" fill="black" stroke-dasharray="none" font-weight="normal" stroke-width="1" height="383" font-family="'Dialog'" font-style="normal" stroke-linejoin="miter" font-size="12px" stroke-dashoffset="0" image-rendering="auto">
  <!--Generated by ySVG 2.5-->
  <defs id="genericDefs"/>
  <g>
    <defs id="defs1">
      <linearGradient x1="445" gradientUnits="userSpaceOnUse" x2="525" y1="121" y2="161" id="linearGradient1" spreadMethod="reflect">
        <stop stop-opacity="1" stop-color="rgb(232,238,247)" offset="0%"/>
        <stop stop-opacity="1" stop-color="rgb(183,201,227)" offset="100%"/>
      </linearGradient>
      <linearGradient x1="445" gradientUnits="userSpaceOnUse" x2="525" y1="210" y2="250" id="linearGradient2" spreadMethod="reflect">
        <stop stop-opacity="1" stop-color="rgb(232,238,247)" offset="0%"/>
        <stop stop-opacity="1" stop-color="rgb(183,201,227)" offset="100%"/>
      </linearGradient>
      <linearGradient x1="296" gradientUnits="userSpaceOnUse" x2="376" y1="331" y2="371" id="linearGradient3" spreadMethod="reflect">
        <stop stop-opacity="1" stop-color="rgb(232,238,247)" offset="0%"/>
        <stop stop-opacity="1" stop-color="rgb(183,201,227)" offset="100%"/>
      </linearGradient>
      <linearGradient x1="445" gradientUnits="userSpaceOnUse" x2="525" y1="331" y2="371" id="linearGradient4" spreadMethod="reflect">
        <stop stop-opacity="1" stop-color="rgb(232,238,247)" offset="0%"/>
        <stop stop-opacity="1" stop-color="rgb(183,201,227)" offset="100%"/>
      </linearGradient>
      <linearGradient x1="594" gradientUnits="userSpaceOnUse" x2="674" y1="331" y2="371" id="linearGradient5" spreadMethod="reflect">
        <stop stop-opacity="1" stop-color="rgb(232,238,247)" offset="0%"/>
        <stop stop-opacity="1" stop-color="rgb(183,201,227)" offset="100%"/>
      </linearGradient>
      <linearGradient x1="445" gradientUnits="userSpaceOnUse" x2="525" y1="434" y2="474" id="linearGradient6" spreadMethod="reflect">
        <stop stop-opacity="1" stop-color="rgb(232,238,247)" offset="0%"/>
        <stop stop-opacity="1" stop-color="rgb(183,201,227)" offset="100%"/>
      </linearGradient>
      <linearGradient x1="243" gradientUnits="userSpaceOnUse" x2="323" y1="434" y2="474" id="linearGradient7" spreadMethod="reflect">
        <stop stop-opacity="1" stop-color="rgb(232,238,247)" offset="0%"/>
        <stop stop-opacity="1" stop-color="rgb(183,201,227)" offset="100%"/>
      </linearGradient>
      <linearGradient x1="348" gradientUnits="userSpaceOnUse" x2="428" y1="434" y2="474" id="linearGradient8" spreadMethod="reflect">
        <stop stop-opacity="1" stop-color="rgb(232,238,247)" offset="0%"/>
        <stop stop-opacity="1" stop-color="rgb(183,201,227)" offset="100%"/>
      </linearGradient>
      <clipPath clipPathUnits="userSpaceOnUse" id="clipPath1">
        <path d="M0 0 L462 0 L462 383 L0 383 L0 0 Z"/>
      </clipPath>
      <clipPath clipPathUnits="userSpaceOnUse" id="clipPath2">
        <path d="M228 106 L690 106 L690 489 L228 489 L228 106 Z"/>
      </clipPath>
    </defs>
    <g fill="url(#linearGradient1)" text-rendering="geometricPrecision" shape-rendering="geometricPrecision" transform="matrix(1,0,0,1,-228,-106)" stroke="url(#linearGradient1)">
      <path d="M445 121 L525 121 L525 161 L445 161 Z" stroke="none" clip-path="url(#clipPath2)"/>
    </g>
    <g text-rendering="geometricPrecision" stroke-miterlimit="1.45" shape-rendering="geometricPrecision" transform="matrix(1,0,0,1,-228,-106)" stroke-linecap="butt">
      <path fill="none" d="M445 121 L525 121 L525 161 L445 161 Z" clip-path="url(#clipPath2)"/>
      <text x="464.3193" xml:space="preserve" y="145.7139" clip-path="url(#clipPath2)" font-family="sans-serif" stroke="none">widget0</text>
    </g>
    <g fill="url(#linearGradient2)" text-rendering="geometricPrecision" shape-rendering="geometricPrecision" transform="matrix(1,0,0,1,-228,-106)" stroke="url(#linearGradient2)">
      <path d="M445 210 L525 210 L525 250 L445 250 Z" stroke="none" clip-path="url(#clipPath2)"/>
    </g>
    <g text-rendering="geometricPrecision" stroke-miterlimit="1.45" shape-rendering="geometricPrecision" transform="matrix(1,0,0,1,-228,-106)" stroke-linecap="butt">
      <path fill="none" d="M445 210 L525 210 L525 250 L445 250 Z" clip-path="url(#clipPath2)"/>
      <text x="464.3193" xml:space="preserve" y="234.7139" clip-path="url(#clipPath2)" font-family="sans-serif" stroke="none">widget1</text>
    </g>
    <g fill="url(#linearGradient3)" text-rendering="geometricPrecision" shape-rendering="geometricPrecision" transform="matrix(1,0,0,1,-228,-106)" stroke="url(#linearGradient3)">
      <path d="M296 331 L376 331 L376 371 L296 371 Z" stroke="none" clip-path="url(#clipPath2)"/>
    </g>
    <g text-rendering="geometricPrecision" stroke-miterlimit="1.45" shape-rendering="geometricPrecision" transform="matrix(1,0,0,1,-228,-106)" stroke-linecap="butt">
      <path fill="none" d="M296 331 L376 331 L376 371 L296 371 Z" clip-path="url(#clipPath2)"/>
      <text x="297.6445" xml:space="preserve" y="355.7139" clip-path="url(#clipPath2)" font-family="sans-serif" stroke="none">widget1-child0</text>
    </g>
    <g fill="url(#linearGradient4)" text-rendering="geometricPrecision" shape-rendering="geometricPrecision" transform="matrix(1,0,0,1,-228,-106)" stroke="url(#linearGradient4)">
      <path d="M445 331 L525 331 L525 371 L445 371 Z" stroke="none" clip-path="url(#clipPath2)"/>
    </g>
    <g text-rendering="geometricPrecision" stroke-miterlimit="1.45" shape-rendering="geometricPrecision" transform="matrix(1,0,0,1,-228,-106)" stroke-linecap="butt">
      <path fill="none" d="M445 331 L525 331 L525 371 L445 371 Z" clip-path="url(#clipPath2)"/>
      <text x="446.6445" xml:space="preserve" y="355.7139" clip-path="url(#clipPath2)" font-family="sans-serif" stroke="none">widget1-child1</text>
    </g>
    <g fill="url(#linearGradient5)" text-rendering="geometricPrecision" shape-rendering="geometricPrecision" transform="matrix(1,0,0,1,-228,-106)" stroke="url(#linearGradient5)">
      <path d="M594 331 L674 331 L674 371 L594 371 Z" stroke="none" clip-path="url(#clipPath2)"/>
    </g>
    <g text-rendering="geometricPrecision" stroke-miterlimit="1.45" shape-rendering="geometricPrecision" transform="matrix(1,0,0,1,-228,-106)" stroke-linecap="butt">
      <path fill="none" d="M594 331 L674 331 L674 371 L594 371 Z" clip-path="url(#clipPath2)"/>
      <text x="595.6445" xml:space="preserve" y="355.7139" clip-path="url(#clipPath2)" font-family="sans-serif" stroke="none">widget1-child2</text>
    </g>
    <g fill="url(#linearGradient6)" text-rendering="geometricPrecision" shape-rendering="geometricPrecision" transform="matrix(1,0,0,1,-228,-106)" stroke="url(#linearGradient6)">
      <path d="M445 434 L525 434 L525 474 L445 474 Z" stroke="none" clip-path="url(#clipPath2)"/>
    </g>
    <g text-rendering="geometricPrecision" stroke-miterlimit="1.45" shape-rendering="geometricPrecision" transform="matrix(1,0,0,1,-228,-106)" stroke-linecap="butt">
      <path fill="none" d="M445 434 L525 434 L525 474 L445 474 Z" clip-path="url(#clipPath2)"/>
      <text x="469.3232" xml:space="preserve" y="458.7139" clip-path="url(#clipPath2)" font-family="sans-serif" stroke="none">child2</text>
    </g>
    <g fill="url(#linearGradient7)" text-rendering="geometricPrecision" shape-rendering="geometricPrecision" transform="matrix(1,0,0,1,-228,-106)" stroke="url(#linearGradient7)">
      <path d="M243 434 L323 434 L323 474 L243 474 Z" stroke="none" clip-path="url(#clipPath2)"/>
    </g>
    <g text-rendering="geometricPrecision" stroke-miterlimit="1.45" shape-rendering="geometricPrecision" transform="matrix(1,0,0,1,-228,-106)" stroke-linecap="butt">
      <path fill="none" d="M243 434 L323 434 L323 474 L243 474 Z" clip-path="url(#clipPath2)"/>
      <text x="267.3232" xml:space="preserve" y="458.7139" clip-path="url(#clipPath2)" font-family="sans-serif" stroke="none">child0</text>
    </g>
    <g fill="url(#linearGradient8)" text-rendering="geometricPrecision" shape-rendering="geometricPrecision" transform="matrix(1,0,0,1,-228,-106)" stroke="url(#linearGradient8)">
      <path d="M348 434 L428 434 L428 474 L348 474 Z" stroke="none" clip-path="url(#clipPath2)"/>
    </g>
    <g text-rendering="geometricPrecision" stroke-miterlimit="1.45" shape-rendering="geometricPrecision" transform="matrix(1,0,0,1,-228,-106)" stroke-linecap="butt">
      <path fill="none" d="M348 434 L428 434 L428 474 L348 474 Z" clip-path="url(#clipPath2)"/>
      <text x="372.3232" xml:space="preserve" y="458.7139" clip-path="url(#clipPath2)" font-family="sans-serif" stroke="none">child1</text>
    </g>
    <g text-rendering="geometricPrecision" stroke-miterlimit="1.45" shape-rendering="geometricPrecision" transform="matrix(1,0,0,1,-228,-106)" stroke-linecap="butt">
      <path fill="none" d="M485 161.0337 L485 202.0307" clip-path="url(#clipPath2)"/>
    </g>
    <g text-rendering="geometricPrecision" stroke-miterlimit="1.45" shape-rendering="geometricPrecision" transform="matrix(1,0,0,1,-228,-106)" stroke-linecap="butt">
      <path d="M485 210.0307 L490 198.0307 L485 201.0307 L480 198.0307 Z" stroke="none" clip-path="url(#clipPath2)"/>
      <path fill="none" d="M485 249.9993 L485 290.5 L336 290.5 L336 323.0007" clip-path="url(#clipPath2)"/>
      <path d="M336 331.0007 L341 319.0007 L336 322.0007 L331 319.0007 Z" clip-path="url(#clipPath2)" stroke="none"/>
      <path fill="none" d="M485 249.9993 L485 323.0267" clip-path="url(#clipPath2)"/>
      <path d="M485 331.0267 L490 319.0267 L485 322.0267 L480 319.0267 Z" clip-path="url(#clipPath2)" stroke="none"/>
      <path fill="none" d="M485 249.9993 L485 290.5 L634 290.5 L634 323.0007" clip-path="url(#clipPath2)"/>
      <path d="M634 331.0007 L639 319.0007 L634 322.0007 L629 319.0007 Z" clip-path="url(#clipPath2)" stroke="none"/>
      <path fill="none" d="M485 370.9915 L485 426.018" clip-path="url(#clipPath2)"/>
      <path d="M485 434.018 L490 422.018 L485 425.018 L480 422.018 Z" clip-path="url(#clipPath2)" stroke="none"/>
      <path fill="none" d="M336 370.9915 L336 402.5 L283 402.5 L283 426.0085" clip-path="url(#clipPath2)"/>
      <path d="M283 434.0085 L288 422.0085 L283 425.0085 L278 422.0085 Z" clip-path="url(#clipPath2)" stroke="none"/>
      <path fill="none" d="M336 370.9915 L336 402.5 L388 402.5 L388 426.0085" clip-path="url(#clipPath2)"/>
      <path d="M388 434.0085 L393 422.0085 L388 425.0085 L383 422.0085 Z" clip-path="url(#clipPath2)" stroke="none"/>
    </g>
  </g>
</svg>
